<?xml version="1.0" encoding="utf-8"?>
<svg width="821.2059px" height="821.2058px" viewBox="0 0 821.2059 821.2058" version="1.1" xmlns:xlink="http://www.w3.org/1999/xlink" xmlns="http://www.w3.org/2000/svg">
  <defs>
    <filter filterUnits="userSpaceOnUse" color-interpolation-filters="sRGB" id="filter_1">
      <feFlood flood-opacity="0" result="BackgroundImageFix" />
      <feColorMatrix in="SourceAlpha" type="matrix" values="0 0 0 0 0 0 0 0 0 0 0 0 0 0 0 0 0 0 127 0" />
      <feOffset dx="0" dy="2" />
      <feGaussianBlur stdDeviation="2" />
      <feColorMatrix type="matrix" values="0 0 0 0 0.39215687 0 0 0 0 0.39215687 0 0 0 0 0.39215687 0 0 0 0.49803922 0" />
      <feBlend mode="normal" in2="BackgroundImageFix" result="effect0_dropShadow" />
      <feBlend mode="normal" in="SourceGraphic" in2="effect0_dropShadow" result="shape" />
    </filter>
    <path d="M480 2.00008L480 1L80 1L80 81L401 81L480 2.00008Z" id="path_1" />
    <clipPath id="clip_1">
      <use xlink:href="#path_1" />
    </clipPath>
  </defs>
  <g id="Group" transform="matrix(0.70710677 0.70710677 -0.70710677 0.70710677 630.9846 48.57728)">
    <g id="Rectangle-Subtract" filter="url(#filter_1)">
      <use stroke="none" fill="#C30C0C" fill-opacity="0.8980392" xlink:href="#path_1" fill-rule="evenodd" />
      <g clip-path="url(#clip_1)">
        <use xlink:href="#path_1" fill="none" stroke="#000000" stroke-width="0" />
      </g>
    </g>
    <path d="M0 281L0 80.2549L79.2549 1L80 1L80 201L2.6226e-06 281L0 281Z" id="Rectangle-Subtract-2" fill="#FCF7F7" fill-opacity="0.8980392" fill-rule="evenodd" stroke="none" />
    <path d="M480 1L80 1" id="Line" fill="none" fill-rule="evenodd" stroke="#BDBDBD" stroke-width="1" stroke-linecap="square" />
    <path d="M0.473087 201L0 201L0 201.473L0.473087 201ZM1.08325 281L400 281L479.903 201.097L480 201.194L480 201L79.8528 201L80.468 201.615L1.08325 281ZM0 280.953L0 281L0.0466918 281L0 280.953Z" id="Rectangle-3-Subtract" fill="#C30C0C" fill-opacity="0.8980392" fill-rule="evenodd" stroke="none" />
    <path d="M80 1L80 201" id="Line-2" fill="none" fill-rule="evenodd" stroke="#BDBDBD" stroke-width="1" stroke-linecap="square" />
    <path d="M400 280.113L400 401L480 401L480 201L479.113 201L400 280.113Z" id="Rectangle-3-Subtract-2" fill="#FCF7F7" fill-opacity="0.8980392" fill-rule="evenodd" stroke="none" />
    <path d="M80 201L480 201" id="Line-3" fill="none" fill-rule="evenodd" stroke="#BDBDBD" stroke-width="1" stroke-linecap="square" />
    <path d="M480 401L280 401L280 481L400 481L480 401Z" id="Rectangle-3-Subtract-3" fill="#C30C0C" fill-opacity="0.8980392" fill-rule="evenodd" stroke="none" />
    <path d="M480 201L480 401" id="Line-4" fill="none" fill-rule="evenodd" stroke="#BDBDBD" stroke-width="1" stroke-linecap="square" />
    <path d="M200 680.36L200 479.51L278.51 401L280 401L280 600.36L200 680.36Z" id="Rectangle-4-Subtract" fill="#FCF7F7" fill-opacity="0.8980392" fill-rule="evenodd" stroke="none" />
    <path d="M480 401L280 401" id="Line-5" fill="none" fill-rule="evenodd" stroke="#BDBDBD" stroke-width="1" stroke-linecap="square" />
    <path d="M280 401L280 601" id="Line-6" fill="none" fill-rule="evenodd" stroke="#BDBDBD" stroke-width="1" stroke-linecap="square" />
  </g>
</svg>